<svg id="visual" viewBox="0 0 960 540" width="1920" xmlns="http://www.w3.org/2000/svg" xmlns:xlink="http://www.w3.org/1999/xlink" version="1.1">
    <path d="M0 158L22.8 152.8C45.7 147.7 91.3 137.3 137 141.3C182.7 145.3 228.3 163.7 274 161.8C319.7 160 365.3 138 411.2 132.8C457 127.7 503 139.3 548.8 155C594.7 170.7 640.3 190.3 686 196.2C731.7 202 777.3 194 823 175.5C868.7 157 914.3 128 937.2 113.5L960 99L960 0L937.2 0C914.3 0 868.7 0 823 0C777.3 0 731.7 0 686 0C640.3 0 594.7 0 548.8 0C503 0 457 0 411.2 0C365.3 0 319.7 0 274 0C228.3 0 182.7 0 137 0C91.3 0 45.7 0 22.8 0L0 0Z" fill="#EA6F6F" stroke-linecap="round" stroke-linejoin="miter"></path>
</svg>
